<svg xmlns="http://www.w3.org/2000/svg" version="1.1" xmlns:xlink="http://www.w3.org/1999/xlink" xmlns:svgjs="http://svgjs.dev/svgjs" viewBox="0 0 800 800"><defs><linearGradient x1="50%" y1="0%" x2="50%" y2="100%" id="ffflurry-grad" gradientTransform="rotate(270)"><stop stop-color="hsl(0, 0%, 100%)" stop-opacity="1" offset="0%"></stop><stop stop-color="hsl(205, 69%, 60%)" stop-opacity="1" offset="45%"></stop><stop stop-color="hsl(205, 69%, 80%)" stop-opacity="1" offset="100%"></stop></linearGradient></defs><rect width="100%" height="100%" fill="hsl(0, 0%, 100%)"></rect><g fill="url(#ffflurry-grad)"><rect width="223" height="3" x="186.5" y="669.5" rx="1.5" transform="rotate(45, 298, 671)" opacity="0.85"></rect><rect width="36" height="3" x="600" y="14.5" rx="1.5" transform="rotate(45, 618, 16)" opacity="0.32"></rect><rect width="330" height="3" x="-140" y="487.5" rx="1.5" transform="rotate(45, 25, 489)" opacity="0.07"></rect><rect width="310" height="3" x="539" y="20.5" rx="1.5" transform="rotate(45, 694, 22)" opacity="0.53"></rect><rect width="281" height="3" x="482.5" y="747.5" rx="1.5" transform="rotate(45, 623, 749)" opacity="0.35"></rect><rect width="140" height="3" x="485" y="267.5" rx="1.5" transform="rotate(45, 555, 269)" opacity="0.59"></rect><rect width="248" height="3" x="-34" y="768.5" rx="1.5" transform="rotate(45, 90, 770)" opacity="0.91"></rect><rect width="625" height="3" x="395.5" y="547.5" rx="1.5" transform="rotate(45, 708, 549)" opacity="0.87"></rect><rect width="466" height="3" x="504" y="301.5" rx="1.5" transform="rotate(45, 737, 303)" opacity="0.39"></rect><rect width="489" height="3" x="195.5" y="764.5" rx="1.5" transform="rotate(45, 440, 766)" opacity="0.79"></rect><rect width="540" height="3" x="483" y="198.5" rx="1.5" transform="rotate(45, 753, 200)" opacity="0.46"></rect><rect width="336" height="3" x="-99" y="350.5" rx="1.5" transform="rotate(45, 69, 352)" opacity="0.88"></rect><rect width="131" height="3" x="698.5" y="63.5" rx="1.5" transform="rotate(45, 764, 65)" opacity="0.42"></rect><rect width="251" height="3" x="560.5" y="141.5" rx="1.5" transform="rotate(45, 686, 143)" opacity="0.52"></rect><rect width="119" height="3" x="324.5" y="255.5" rx="1.5" transform="rotate(45, 384, 257)" opacity="0.28"></rect><rect width="410" height="3" x="164" y="380.5" rx="1.5" transform="rotate(45, 369, 382)" opacity="0.34"></rect><rect width="317" height="3" x="96.5" y="550.5" rx="1.5" transform="rotate(45, 255, 552)" opacity="0.75"></rect><rect width="376" height="3" x="418" y="355.5" rx="1.5" transform="rotate(45, 606, 357)" opacity="0.61"></rect><rect width="466" height="3" x="37" y="117.5" rx="1.5" transform="rotate(45, 270, 119)" opacity="0.25"></rect><rect width="88" height="3" x="602" y="255.5" rx="1.5" transform="rotate(45, 646, 257)" opacity="0.40"></rect><rect width="94" height="3" x="351" y="81.5" rx="1.5" transform="rotate(45, 398, 83)" opacity="0.14"></rect><rect width="372" height="3" x="490" y="74.5" rx="1.5" transform="rotate(45, 676, 76)" opacity="0.17"></rect><rect width="378" height="3" x="288" y="686.5" rx="1.5" transform="rotate(45, 477, 688)" opacity="0.24"></rect><rect width="473" height="3" x="289.5" y="755.5" rx="1.5" transform="rotate(45, 526, 757)" opacity="0.70"></rect><rect width="535" height="3" x="206.5" y="131.5" rx="1.5" transform="rotate(45, 474, 133)" opacity="0.64"></rect><rect width="504" height="3" x="173" y="521.5" rx="1.5" transform="rotate(45, 425, 523)" opacity="0.20"></rect><rect width="37" height="3" x="372.5" y="697.5" rx="1.5" transform="rotate(45, 391, 699)" opacity="0.61"></rect><rect width="53" height="3" x="12.5" y="616.5" rx="1.5" transform="rotate(45, 39, 618)" opacity="0.49"></rect><rect width="395" height="3" x="490.5" y="393.5" rx="1.5" transform="rotate(45, 688, 395)" opacity="0.51"></rect><rect width="594" height="3" x="202" y="334.5" rx="1.5" transform="rotate(45, 499, 336)" opacity="0.38"></rect><rect width="214" height="3" x="458" y="121.5" rx="1.5" transform="rotate(45, 565, 123)" opacity="0.64"></rect><rect width="230" height="3" x="644" y="439.5" rx="1.5" transform="rotate(45, 759, 441)" opacity="0.71"></rect><rect width="117" height="3" x="135.5" y="583.5" rx="1.5" transform="rotate(45, 194, 585)" opacity="0.84"></rect><rect width="365" height="3" x="291.5" y="429.5" rx="1.5" transform="rotate(45, 474, 431)" opacity="0.09"></rect><rect width="288" height="3" x="129" y="765.5" rx="1.5" transform="rotate(45, 273, 767)" opacity="0.10"></rect><rect width="186" height="3" x="-45" y="223.5" rx="1.5" transform="rotate(45, 48, 225)" opacity="0.97"></rect><rect width="643" height="3" x="-214.5" y="445.5" rx="1.5" transform="rotate(45, 107, 447)" opacity="0.70"></rect><rect width="328" height="3" x="446" y="63.5" rx="1.5" transform="rotate(45, 610, 65)" opacity="0.69"></rect><rect width="331" height="3" x="53.5" y="347.5" rx="1.5" transform="rotate(45, 219, 349)" opacity="0.08"></rect><rect width="224" height="3" x="483" y="456.5" rx="1.5" transform="rotate(45, 595, 458)" opacity="0.60"></rect><rect width="535" height="3" x="310.5" y="652.5" rx="1.5" transform="rotate(45, 578, 654)" opacity="0.50"></rect><rect width="177" height="3" x="55.5" y="540.5" rx="1.5" transform="rotate(45, 144, 542)" opacity="0.99"></rect><rect width="263" height="3" x="75.5" y="93.5" rx="1.5" transform="rotate(45, 207, 95)" opacity="0.21"></rect><rect width="155" height="3" x="644.5" y="651.5" rx="1.5" transform="rotate(45, 722, 653)" opacity="0.87"></rect><rect width="217" height="3" x="266.5" y="173.5" rx="1.5" transform="rotate(45, 375, 175)" opacity="0.81"></rect><rect width="285" height="3" x="94.5" y="210.5" rx="1.5" transform="rotate(45, 237, 212)" opacity="0.20"></rect><rect width="467" height="3" x="-11.5" y="425.5" rx="1.5" transform="rotate(45, 222, 427)" opacity="0.25"></rect><rect width="882" height="3" x="-383" y="78.5" rx="1.5" transform="rotate(45, 58, 80)" opacity="0.72"></rect><rect width="527" height="3" x="288.5" y="553.5" rx="1.5" transform="rotate(45, 552, 555)" opacity="0.77"></rect><rect width="103" height="3" x="248.5" y="27.5" rx="1.5" transform="rotate(45, 300, 29)" opacity="0.07"></rect><rect width="199" height="3" x="230.5" y="304.5" rx="1.5" transform="rotate(45, 330, 306)" opacity="0.96"></rect><rect width="229" height="3" x="36.5" y="257.5" rx="1.5" transform="rotate(45, 151, 259)" opacity="0.16"></rect><rect width="292" height="3" x="123" y="270.5" rx="1.5" transform="rotate(45, 269, 272)" opacity="0.73"></rect><rect width="432" height="3" x="370" y="191.5" rx="1.5" transform="rotate(45, 586, 193)" opacity="0.62"></rect><rect width="332" height="3" x="-63" y="606.5" rx="1.5" transform="rotate(45, 103, 608)" opacity="0.63"></rect><rect width="293" height="3" x="7.5" y="692.5" rx="1.5" transform="rotate(45, 154, 694)" opacity="0.58"></rect><rect width="351" height="3" x="-21.5" y="629.5" rx="1.5" transform="rotate(45, 154, 631)" opacity="1.00"></rect><rect width="279" height="3" x="125.5" y="608.5" rx="1.5" transform="rotate(45, 265, 610)" opacity="0.45"></rect><rect width="247" height="3" x="216.5" y="592.5" rx="1.5" transform="rotate(45, 340, 594)" opacity="0.17"></rect><rect width="399" height="3" x="343.5" y="36.5" rx="1.5" transform="rotate(45, 543, 38)" opacity="0.96"></rect><rect width="78" height="3" x="297" y="88.5" rx="1.5" transform="rotate(45, 336, 90)" opacity="0.93"></rect><rect width="167" height="3" x="376.5" y="34.5" rx="1.5" transform="rotate(45, 460, 36)" opacity="0.93"></rect><rect width="103" height="3" x="276.5" y="715.5" rx="1.5" transform="rotate(45, 328, 717)" opacity="0.60"></rect><rect width="273" height="3" x="-65.5" y="541.5" rx="1.5" transform="rotate(45, 71, 543)" opacity="0.85"></rect><rect width="136" height="3" x="146" y="497.5" rx="1.5" transform="rotate(45, 214, 499)" opacity="0.54"></rect><rect width="342" height="3" x="570" y="749.5" rx="1.5" transform="rotate(45, 741, 751)" opacity="0.49"></rect><rect width="170" height="3" x="219" y="182.5" rx="1.5" transform="rotate(45, 304, 184)" opacity="0.97"></rect><rect width="174" height="3" x="347" y="617.5" rx="1.5" transform="rotate(45, 434, 619)" opacity="0.82"></rect><rect width="452" height="3" x="236" y="234.5" rx="1.5" transform="rotate(45, 462, 236)" opacity="0.36"></rect><rect width="297" height="3" x="8.5" y="160.5" rx="1.5" transform="rotate(45, 157, 162)" opacity="0.91"></rect><rect width="439" height="3" x="-193.5" y="705.5" rx="1.5" transform="rotate(45, 26, 707)" opacity="0.28"></rect><rect width="440" height="3" x="-57" y="34.5" rx="1.5" transform="rotate(45, 163, 36)" opacity="0.98"></rect><rect width="389" height="3" x="164.5" y="770.5" rx="1.5" transform="rotate(45, 359, 772)" opacity="0.84"></rect><rect width="294" height="3" x="-55" y="694.5" rx="1.5" transform="rotate(45, 92, 696)" opacity="0.30"></rect><rect width="58" height="3" x="178" y="743.5" rx="1.5" transform="rotate(45, 207, 745)" opacity="0.46"></rect><rect width="248" height="3" x="199" y="482.5" rx="1.5" transform="rotate(45, 323, 484)" opacity="0.92"></rect><rect width="292" height="3" x="76" y="658.5" rx="1.5" transform="rotate(45, 222, 660)" opacity="0.10"></rect></g></svg>